<svg width="1041" height="304" viewBox="0 0 1041 304" fill="none" xmlns="http://www.w3.org/2000/svg">
<path fill-rule="evenodd" clip-rule="evenodd" d="M52.1861 121.149C79.7161 86.7837 109.804 72.0305 137.345 73.3198C164.874 74.6087 187.151 91.8407 198.758 115.654C210.387 139.511 211.55 170.208 197.499 199.834C183.424 229.51 154.465 257.428 106.96 277.038L99.0806 257.949C142.936 239.846 167.42 215.061 178.839 190.984C190.282 166.858 188.992 142.752 180.195 124.704C171.376 106.611 155.252 94.8324 136.379 93.9487C117.52 93.0659 93.2038 102.978 68.3033 134.061C63.2032 140.427 62.1412 145.112 62.2466 147.297C62.3134 148.681 62.5931 148.742 63.356 148.952C65.0972 149.43 69.7832 149.48 77.7203 145.255C85.4286 141.152 95.1844 133.517 106.289 120.811L121.839 134.401C109.598 148.407 97.9445 157.884 87.4234 163.485C77.1318 168.963 66.7668 171.308 57.8804 168.865C48.0164 166.152 42.0908 158.074 41.6187 148.292C41.1855 139.313 45.2506 129.806 52.1861 121.149ZM109.205 57.0522C21.7817 93.1384 10.5553 155.243 27.397 190.459C36.0538 208.561 51.9949 220.314 70.69 221.208C89.3902 222.103 113.614 212.225 138.529 181.124C143.628 174.758 144.69 170.074 144.585 167.888C144.518 166.505 144.239 166.444 143.476 166.234C141.735 165.755 137.049 165.706 129.112 169.931C121.404 174.034 111.647 181.669 100.543 194.375L84.9927 180.786C97.2337 166.779 108.888 157.301 119.409 151.701C129.7 146.223 140.065 143.878 148.952 146.322C158.815 149.034 164.741 157.111 165.213 166.892C165.647 175.871 161.582 185.379 154.646 194.037C127.13 228.384 97.1317 243.149 69.7027 241.836C42.2692 240.524 20.1737 223.22 8.76716 199.37C-14.5174 150.681 6.02509 77.2999 101.325 37.9624L109.205 57.0522Z" fill="black"/>
<path d="M302.064 127.949C305.982 122.545 311.319 118.154 318.074 114.776C324.965 111.263 332.599 109.507 340.976 109.507C350.839 109.507 359.756 111.871 367.728 116.6C375.699 121.329 381.982 128.084 386.576 136.867C391.169 145.514 393.466 155.444 393.466 166.659C393.466 177.873 391.169 187.939 386.576 196.856C381.982 205.638 375.632 212.529 367.525 217.528C359.553 222.392 350.704 224.824 340.976 224.824C332.329 224.824 324.627 223.135 317.872 219.757C311.251 216.38 305.982 212.056 302.064 206.787V223H278.96V73.0267H302.064V127.949ZM369.957 166.659C369.957 158.957 368.336 152.337 365.093 146.797C361.985 141.123 357.797 136.867 352.528 134.029C347.393 131.057 341.854 129.571 335.909 129.571C330.099 129.571 324.56 131.057 319.29 134.029C314.156 137.002 309.968 141.325 306.725 147C303.617 152.675 302.064 159.363 302.064 167.064C302.064 174.765 303.617 181.521 306.725 187.331C309.968 193.005 314.156 197.329 319.29 200.301C324.56 203.274 330.099 204.76 335.909 204.76C341.854 204.76 347.393 203.274 352.528 200.301C357.797 197.194 361.985 192.735 365.093 186.925C368.336 181.116 369.957 174.36 369.957 166.659ZM477.114 206.787C473.736 211.921 468.467 216.244 461.306 219.757C454.28 223.27 446.646 225.027 438.405 225.027C431.244 225.027 424.758 223.608 418.949 220.771C413.139 217.798 408.613 213.812 405.37 208.813C402.127 203.679 400.506 197.937 400.506 191.587C400.506 181.318 404.221 172.806 411.653 166.051C419.219 159.295 430.501 155.917 445.498 155.917H477.114C476.844 147.946 474.412 141.528 469.818 136.664C465.359 131.8 459.347 129.368 451.781 129.368C444.89 129.368 439.148 131.26 434.554 135.043C430.095 138.826 427.258 144.095 426.042 150.851H403.343C404.965 138.556 410.166 128.557 418.949 120.856C427.866 113.155 439.148 109.304 452.794 109.304C461.711 109.304 469.75 111.263 476.911 115.181C484.207 118.964 489.949 124.504 494.138 131.8C498.461 139.096 500.623 147.676 500.623 157.539V223H477.114V206.787ZM443.269 204.76C448.538 204.76 453.74 203.679 458.874 201.517C464.143 199.22 468.467 195.843 471.845 191.384C475.357 186.79 477.114 181.251 477.114 174.765V174.563H445.498C438.202 174.563 432.797 175.981 429.285 178.819C425.907 181.656 424.218 185.304 424.218 189.763C424.218 194.356 425.907 198.004 429.285 200.707C432.662 203.409 437.324 204.76 443.269 204.76ZM579.348 109.507C588.13 109.507 595.967 111.331 602.857 114.979C609.883 118.627 615.355 124.031 619.273 131.192C623.192 138.353 625.151 147 625.151 157.133V223H602.249V160.579C602.249 150.58 599.75 142.947 594.751 137.677C589.752 132.273 582.929 129.571 574.281 129.571C565.634 129.571 558.744 132.273 553.609 137.677C548.61 142.947 546.111 150.58 546.111 160.579V223H523.007V111.331H546.111V124.099C549.894 119.505 554.69 115.924 560.5 113.357C566.445 110.79 572.728 109.507 579.348 109.507ZM673.469 130.179V191.992C673.469 196.18 674.415 199.22 676.307 201.112C678.333 202.868 681.711 203.747 686.44 203.747H700.627V223H682.387C671.983 223 664.012 220.568 658.472 215.704C652.933 210.84 650.163 202.936 650.163 191.992V130.179H636.989V111.331H650.163V83.5653H673.469V111.331H700.627V130.179H673.469ZM814.945 111.331V223H791.841V209.827C788.193 214.42 783.397 218.068 777.452 220.771C771.642 223.338 765.427 224.621 758.806 224.621C750.024 224.621 742.12 222.797 735.094 219.149C728.204 215.501 722.732 210.097 718.678 202.936C714.76 195.775 712.801 187.128 712.801 176.995V111.331H735.702V173.549C735.702 183.548 738.202 191.249 743.201 196.653C748.2 201.923 755.023 204.557 763.67 204.557C772.317 204.557 779.141 201.923 784.14 196.653C789.274 191.249 791.841 183.548 791.841 173.549V111.331H814.945ZM846.645 224.419C842.456 224.419 838.944 223 836.106 220.163C833.269 217.325 831.85 213.812 831.85 209.624C831.85 205.436 833.269 201.923 836.106 199.085C838.944 196.248 842.456 194.829 846.645 194.829C850.698 194.829 854.144 196.248 856.981 199.085C859.818 201.923 861.237 205.436 861.237 209.624C861.237 213.812 859.818 217.325 856.981 220.163C854.144 223 850.698 224.419 846.645 224.419ZM889.856 96.536C885.667 96.536 882.154 95.1173 879.317 92.28C876.48 89.4427 875.061 85.9298 875.061 81.7413C875.061 77.5529 876.48 74.04 879.317 71.2027C882.154 68.3653 885.667 66.9467 889.856 66.9467C893.909 66.9467 897.354 68.3653 900.192 71.2027C903.029 74.04 904.448 77.5529 904.448 81.7413C904.448 85.9298 903.029 89.4427 900.192 92.28C897.354 95.1173 893.909 96.536 889.856 96.536ZM901.205 111.331V223H878.101V111.331H901.205ZM979.773 109.507C988.555 109.507 996.392 111.331 1003.28 114.979C1010.31 118.627 1015.78 124.031 1019.7 131.192C1023.62 138.353 1025.58 147 1025.58 157.133V223H1002.67V160.579C1002.67 150.58 1000.17 142.947 995.176 137.677C990.177 132.273 983.354 129.571 974.706 129.571C966.059 129.571 959.169 132.273 954.034 137.677C949.035 142.947 946.536 150.58 946.536 160.579V223H923.432V111.331H946.536V124.099C950.319 119.505 955.115 115.924 960.925 113.357C966.87 110.79 973.153 109.507 979.773 109.507Z" fill="black"/>
</svg>
